GRF
version=1
nRows=24
nColumns=19
inDegrees=no
endheader
time	1_ground_force_vx	1_ground_force_vy	1_ground_force_vz	1_ground_force_px	1_ground_force_py	1_ground_force_pz	1_ground_torque_x	1_ground_torque_y	1_ground_torque_z	2_ground_force_vx	2_ground_force_vy	2_ground_force_vz	2_ground_force_px	2_ground_force_py	2_ground_force_pz	2_ground_torque_x	2_ground_torque_y	2_ground_torque_z
      0.44500000	     -3.80394599	    740.48026370	      2.00459834	      0.14764409	      0.00000000	     -0.41923127	      0.00000000	      0.27702558	      0.00000000	      0.00000000	      0.00000000	      0.00000000	      0.00000000	      0.00000000	      0.00000000	      0.00000000	      0.00000000	      0.00000000
      0.44600000	     -3.77465263	    740.47861524	      2.00786602	      0.14765057	      0.00000000	     -0.41922349	      0.00000000	      0.27992470	      0.00000000	      0.00000000	      0.00000000	      0.00000000	      0.00000000	      0.00000000	      0.00000000	      0.00000000	      0.00000000	      0.00000000
      0.44700000	     -3.73303679	    740.51896415	      2.00946252	      0.14766301	      0.00000000	     -0.41922003	      0.00000000	      0.28226203	      0.00000000	      0.00000000	      0.00000000	      0.00000000	      0.00000000	      0.00000000	      0.00000000	      0.00000000	      0.00000000	      0.00000000
      0.44800000	     -3.68071612	    740.57342711	      2.00010150	      0.14767053	      0.00000000	     -0.41922221	      0.00000000	      0.28344900	      0.00000000	      0.00000000	      0.00000000	      0.00000000	      0.00000000	      0.00000000	      0.00000000	      0.00000000	      0.00000000	      0.00000000
      0.44900000	     -3.62299852	    740.58668210	      1.98068905	      0.14766470	      0.00000000	     -0.41922678	      0.00000000	      0.28443749	      0.00000000	      0.00000000	      0.00000000	      0.00000000	      0.00000000	      0.00000000	      0.00000000	      0.00000000	      0.00000000	      0.00000000
      0.45000000	     -3.55837228	    740.52164151	      1.94470986	      0.14764396	      0.00000000	     -0.41923326	      0.00000000	      0.28403751	      0.00000000	      0.00000000	      0.00000000	      0.00000000	      0.00000000	      0.00000000	      0.00000000	      0.00000000	      0.00000000	      0.00000000
      0.45100000	     -3.49386776	    740.40523471	      1.89822035	      0.14761207	      0.00000000	     -0.41924102	      0.00000000	      0.28602547	      0.00000000	      0.00000000	      0.00000000	      0.00000000	      0.00000000	      0.00000000	      0.00000000	      0.00000000	      0.00000000	      0.00000000
      0.45200000	     -3.44700557	    740.29357156	      1.87863289	      0.14757711	      0.00000000	     -0.41924838	      0.00000000	      0.29149899	      0.00000000	      0.00000000	      0.00000000	      0.00000000	      0.00000000	      0.00000000	      0.00000000	      0.00000000	      0.00000000	      0.00000000
      0.45300000	     -3.41340808	    740.17876593	      1.90238551	      0.14754888	      0.00000000	     -0.41925570	      0.00000000	      0.29777626	      0.00000000	      0.00000000	      0.00000000	      0.00000000	      0.00000000	      0.00000000	      0.00000000	      0.00000000	      0.00000000	      0.00000000
      0.45400000	     -3.39531152	    740.08860250	      1.95166083	      0.14752861	      0.00000000	     -0.41925960	      0.00000000	      0.30113101	      0.00000000	      0.00000000	      0.00000000	      0.00000000	      0.00000000	      0.00000000	      0.00000000	      0.00000000	      0.00000000	      0.00000000
      0.45500000	     -3.37053435	    740.00937509	      1.98902426	      0.14751617	      0.00000000	     -0.41926416	      0.00000000	      0.29819075	      0.00000000	      0.00000000	      0.00000000	      0.00000000	      0.00000000	      0.00000000	      0.00000000	      0.00000000	      0.00000000	      0.00000000
      0.45600000	     -3.33356007	    739.95887058	      1.97943735	      0.14750384	      0.00000000	     -0.41926898	      0.00000000	      0.29108603	      0.00000000	      0.00000000	      0.00000000	      0.00000000	      0.00000000	      0.00000000	      0.00000000	      0.00000000	      0.00000000	      0.00000000
      0.45700000	     -3.27941367	    739.90428465	      1.92994425	      0.14748597	      0.00000000	     -0.41927016	      0.00000000	      0.28503556	      0.00000000	      0.00000000	      0.00000000	      0.00000000	      0.00000000	      0.00000000	      0.00000000	      0.00000000	      0.00000000	      0.00000000
      0.45800000	     -3.22591248	    739.83227248	      1.86881478	      0.14745783	      0.00000000	     -0.41926789	      0.00000000	      0.28000063	      0.00000000	      0.00000000	      0.00000000	      0.00000000	      0.00000000	      0.00000000	      0.00000000	      0.00000000	      0.00000000	      0.00000000
      0.45900000	     -3.17136824	    739.72523622	      1.80873875	      0.14742608	      0.00000000	     -0.41926230	     -0.00000000	      0.27521768	     -0.00000000	      0.00000000	      0.00000000	      0.00000000	      0.00000000	      0.00000000	      0.00000000	      0.00000000	      0.00000000	      0.00000000
      0.46000000	     -3.11029164	    739.56179590	      1.76665260	      0.14739351	      0.00000000	     -0.41925726	     -0.00000000	      0.26991339	     -0.00000000	      0.00000000	      0.00000000	      0.00000000	      0.00000000	      0.00000000	      0.00000000	      0.00000000	      0.00000000	      0.00000000
      0.46100000	     -3.03978010	    739.30631515	      1.74659825	      0.14736271	      0.00000000	     -0.41925573	     -0.00000000	      0.26530266	     -0.00000000	      0.00000000	      0.00000000	      0.00000000	      0.00000000	      0.00000000	      0.00000000	      0.00000000	      0.00000000	      0.00000000
      0.46200000	     -2.97333721	    738.99929490	      1.75386244	      0.14732556	      0.00000000	     -0.41925823	     -0.00000000	      0.26384102	     -0.00000000	      0.00000000	      0.00000000	      0.00000000	      0.00000000	      0.00000000	      0.00000000	      0.00000000	      0.00000000	      0.00000000
      0.46300000	     -2.91191597	    738.69544298	      1.76945060	      0.14729061	      0.00000000	     -0.41926593	     -0.00000000	      0.26347664	     -0.00000000	      0.00000000	      0.00000000	      0.00000000	      0.00000000	      0.00000000	      0.00000000	      0.00000000	      0.00000000	      0.00000000
      0.46400000	     -2.85897503	    738.44427765	      1.76787185	      0.14726059	      0.00000000	     -0.41927873	     -0.00000000	      0.26182647	     -0.00000000	      0.00000000	      0.00000000	      0.00000000	      0.00000000	      0.00000000	      0.00000000	      0.00000000	      0.00000000	      0.00000000
      0.46500000	     -2.78280534	    738.30790865	      1.73782291	      0.14724097	      0.00000000	     -0.41928049	     -0.00000000	      0.25886867	     -0.00000000	      0.00000000	      0.00000000	      0.00000000	      0.00000000	      0.00000000	      0.00000000	      0.00000000	      0.00000000	      0.00000000
      0.46600000	     -2.68806998	    738.26569246	      1.68497785	      0.14722485	      0.00000000	     -0.41927199	     -0.00000000	      0.25457707	     -0.00000000	      0.00000000	      0.00000000	      0.00000000	      0.00000000	      0.00000000	      0.00000000	      0.00000000	      0.00000000	      0.00000000
      0.46700000	     -2.60065365	    738.29050027	      1.63804319	      0.14720701	      0.00000000	     -0.41925027	     -0.00000000	      0.25046198	     -0.00000000	      0.00000000	      0.00000000	      0.00000000	      0.00000000	      0.00000000	      0.00000000	      0.00000000	      0.00000000	      0.00000000
      0.46800000	     -2.54305142	    738.25685400	      1.60384128	      0.14719577	      0.00000000	     -0.41922907	     -0.00000000	      0.24565686	     -0.00000000	      0.00000000	      0.00000000	      0.00000000	      0.00000000	      0.00000000	      0.00000000	      0.00000000	      0.00000000	      0.00000000
